<svg id="c_" data-name="c++" xmlns="http://www.w3.org/2000/svg" viewBox="0 0 108 123.67"><defs><style>.cls-1{fill:#fff;}</style></defs><path id="plain" class="cls-1" d="M265.5,33.5l.3-.17a6.87,6.87,0,0,0-2.44-2.59L215.12,2.89a7.12,7.12,0,0,0-6.24,0l-48,27.85A6.89,6.89,0,0,0,158,36.15v55.7a6.34,6.34,0,0,0,.9,3.36l-.19.11a6.06,6.06,0,0,0,1.93,1.94l48.24,27.85a7.12,7.12,0,0,0,6.24,0l48-27.85A6.89,6.89,0,0,0,266,91.85V36.15A6.08,6.08,0,0,0,265.5,33.5ZM230,66V62h5V57h5v5h5v4h-5v5h-5V66Zm3.35-14a24.51,24.51,0,1,0-.06,24.09l12.94,7.58a39.5,39.5,0,1,1,.09-39.19ZM263,66h-5v5h-4V66h-6V62h6V57h4v5h5Z" transform="translate(-158 -2.17)"/></svg>