<svg id="Layer_1" data-name="Layer 1" xmlns="http://www.w3.org/2000/svg" viewBox="0 0 99.34 128"><defs><style>.cls-1{fill:#fff;}</style></defs><path class="cls-1" d="M59.45,0H80.38V96.88A138,138,0,0,1,53.2,99.74C27.65,99.73,14.33,88.18,14.33,66c0-21.34,14.13-35.2,36-35.2a33.31,33.31,0,0,1,9.11,1.09Zm0,48.76a20.94,20.94,0,0,0-7.07-1.08c-10.6,0-16.72,6.52-16.72,17.94,0,11.14,5.85,17.26,16.59,17.26a49.73,49.73,0,0,0,7.2-.54Z" transform="translate(-14.33)"/><path class="cls-1" d="M113.67,32.32V80.84c0,16.72-1.22,24.73-4.89,31.67-3.4,6.66-7.88,10.87-17.13,15.49l-19.43-9.24c9.24-4.35,13.73-8.15,16.58-14s3.94-12.91,3.94-31.12V32.32ZM92.74.11h20.93V21.59H92.74Z" transform="translate(-14.33)"/></svg>