<svg id="css3" xmlns="http://www.w3.org/2000/svg" viewBox="0 0 88.97 125.59"><defs><style>.cls-1{fill:#fff;}.cls-2{fill:#1572b6;}.cls-3{fill:#33a9dc;}.cls-4{fill:#ebebeb;}</style></defs><path id="Shape" class="cls-1" d="M89.23,153.86H81.85l7.68,8.33v4H73.71v-4.65h7.68l-7.68-8.33v-4H89.23v4.65Zm-18.65,0H63.19l7.68,8.33v4H55.05v-4.65h7.68l-7.68-8.33v-4H70.58v4.65Zm-18.48.19h-8v7.27h8v4.84H38.47V149.21H52.1v4.84Z" transform="translate(-19.52 -149.21)"/><path id="Shape-2" data-name="Shape" class="cls-2" d="M27.61,264.71l-8.09-90.82h89l-8.1,90.8L64,274.79Z" transform="translate(-19.52 -149.21)"/><path id="Shape-3" data-name="Shape" class="cls-3" d="M64,267.07l29.44-8.16,6.93-77.59H64Z" transform="translate(-19.52 -149.21)"/><g id="Group"><path id="Shape-4" data-name="Shape" class="cls-1" d="M64,214.22H78.74l1-11.41H64V191.68H91.93l-.27,3-2.74,30.7H64Z" transform="translate(-19.52 -149.21)"/><path id="Shape-5" data-name="Shape" class="cls-4" d="M64.07,243.15h0l-12.41-3.35-.79-8.88H39.64l1.56,17.48L64,254.75l0,0Z" transform="translate(-19.52 -149.21)"/><path id="Shape-6" data-name="Shape" class="cls-1" d="M77.79,224.89,76.45,239.8,64,243.16v11.58l22.83-6.33.17-1.88L89,224.89Z" transform="translate(-19.52 -149.21)"/><path id="Shape-7" data-name="Shape" class="cls-4" d="M64,191.68v11.13H37.14l-.23-2.5-.5-5.65-.27-3Z" transform="translate(-19.52 -149.21)"/><path id="Shape-8" data-name="Shape" class="cls-4" d="M64,214.22v11.14H51.75l-.22-2.5L51,217.21l-.26-3Z" transform="translate(-19.52 -149.21)"/></g></svg>