<svg id="css3" xmlns="http://www.w3.org/2000/svg" viewBox="0 0 88.66 125.54"><defs><style>.cls-1{fill:#fff;}</style></defs><g id="plain-wordmark"><path class="cls-1" d="M167.67,174l8.07,90.49L212,274.54l36.3-10.06L256.33,174Zm69.21,50.49h0l-2.35,21.89v1.87L212,254.55h0l0,0-22.72-6.23L187.73,231h11.14l.79,8.77L212,243.06v0l12.39-3.49L225.7,225H199.8l-.23-2.36-.5-5.64-.27-3h27.89l1-11H185.23l-.22-2.59-.51-6-.26-3.38h55.59l-.26,3.33-2.69,30.16" transform="translate(-167.67 -149)"/><polygon class="cls-1" points="69.33 13.37 62.18 5 69.33 5 69.33 0 53.33 0 53.33 4.36 61.72 12 53.33 12 53.33 17 69.33 17 69.33 13.37"/><polygon class="cls-1" points="50.33 13.37 43.52 5 50.33 5 50.33 0 35.33 0 35.33 4.36 43.06 12 35.33 12 35.33 17 50.33 17 50.33 13.37"/><polygon class="cls-1" points="32.33 12 24.33 12 24.33 5 32.33 5 32.33 0 18.33 0 18.33 17 32.33 17 32.33 12"/></g></svg>