<svg id="html5" xmlns="http://www.w3.org/2000/svg" viewBox="0 0 88.38 124.75"><defs><style>.cls-1{fill:#e44d26;}.cls-2{fill:#f16529;}.cls-3{fill:#ebebeb;}.cls-4{fill:#fff;}</style></defs><polygon class="cls-1" points="8.04 114.73 0 24.52 88.38 24.52 80.33 114.71 44.14 124.75 8.04 114.73"/><polygon class="cls-2" points="44.19 117.08 73.43 108.97 80.31 31.89 44.19 31.89 44.19 117.08"/><polygon class="cls-3" points="44.19 65.35 29.55 65.35 28.54 54.02 44.19 54.02 44.19 42.96 44.15 42.96 16.45 42.96 16.71 45.92 19.43 76.41 44.19 76.41 44.19 65.35"/><polygon class="cls-3" points="44.19 94.08 44.14 94.1 31.82 90.77 31.03 81.95 25.04 81.95 19.93 81.95 21.48 99.32 44.14 105.61 44.19 105.59 44.19 94.08"/><path class="cls-4" d="M28,149.63h5.63v5.55H38.8v-5.55h5.62v16.82H38.8v-5.63H33.66v5.63H28V149.63Z" transform="translate(-19.81 -149.63)"/><path class="cls-4" d="M51.82,155.21h-5v-5.58H62.39v5.58h-5v11.24H51.82V155.21Z" transform="translate(-19.81 -149.63)"/><path class="cls-4" d="M64.86,149.63h5.86l3.61,5.91,3.6-5.91h5.86v16.82h-5.6v-8.34l-3.86,6h-.1l-3.87-6v8.34h-5.5Z" transform="translate(-19.81 -149.63)"/><path class="cls-4" d="M86.59,149.63h5.62v11.26h7.91v5.56H86.59Z" transform="translate(-19.81 -149.63)"/><polygon class="cls-4" points="44.15 65.35 44.15 76.41 57.77 76.41 56.49 90.76 44.15 94.09 44.15 105.6 66.83 99.32 67 97.45 69.6 68.32 69.87 65.35 66.89 65.35 44.15 65.35"/><polygon class="cls-4" points="44.15 42.96 44.15 49.83 44.15 53.99 44.15 54.02 70.84 54.02 70.84 54.02 70.88 54.02 71.1 51.53 71.6 45.92 71.87 42.96 44.15 42.96"/></svg>