<svg id="html5" xmlns="http://www.w3.org/2000/svg" viewBox="0 0 88.86 124.97"><defs><style>.cls-1{fill:#fff;}</style></defs><g id="plain-wordmark"><path class="cls-1" d="M167.57,175l8.09,89.92L212,274.6l36.39-9.5,8.09-90.1Zm72,20.47-.51,5.83-.22,2.7H196.31l1,12h40.54l-.27,2.23L235,247.14l-.19,1.69L212,255h0l-22.77-5.91L187.65,232h11.17l.79,8.46L212,243.6v-.23h0l12.41-2.65,1.3-13.73H187.15l-2.73-30.84-.27-3.16h55.73Z" transform="translate(-167.57 -149.63)"/><path class="cls-1" d="M176,149.63h5.62v5.55h5.14v-5.55h5.62v16.82h-5.62v-5.63h-5.14v5.63H176V149.63Z" transform="translate(-167.57 -149.63)"/><path class="cls-1" d="M199.74,155.21h-5v-5.58h15.52v5.58h-4.95v11.24h-5.62V155.21Z" transform="translate(-167.57 -149.63)"/><path class="cls-1" d="M212.78,149.63h5.86l3.61,5.91,3.6-5.91h5.86v16.82h-5.6v-8.34l-3.86,6h-.1l-3.87-6v8.34h-5.5Z" transform="translate(-167.57 -149.63)"/><path class="cls-1" d="M234.51,149.63h5.63v11.26H248v5.56H234.51Z" transform="translate(-167.57 -149.63)"/></g></svg>