<svg id="java" xmlns="http://www.w3.org/2000/svg" viewBox="0 0 65.17 125.38"><defs><style>.cls-1{fill:#fff;}</style></defs><g id="plain-wordmark"><path class="cls-1" d="M201.6,215.82c-13.23,3.69,8,11.32,24.88,4.11a31,31,0,0,1-4.74-2.31c-7.51,1.42-11,1.53-17.8.75C198.31,217.73,201.6,215.82,201.6,215.82Z" transform="translate(-179.42 -149.31)"/><path class="cls-1" d="M224.46,208.61a69.39,69.39,0,0,1-23,1.1c-5.63-.58-1.94-3.31-1.94-3.31-14.57,4.84,8.1,10.32,28.46,4.37A10.06,10.06,0,0,1,224.46,208.61Z" transform="translate(-179.42 -149.31)"/><path class="cls-1" d="M232.26,166.88s-29.44,7.35-15.38,23.55c4.15,4.78-1.09,9.07-1.09,9.07s10.53-5.43,5.7-12.24C217,180.91,213.5,177.75,232.26,166.88Z" transform="translate(-179.42 -149.31)"/><path class="cls-1" d="M185.48,229.3c34.32,5.57,62.57-2.5,53.67-6.52,0,0,2.43,2-2.68,3.56-9.72,2.94-40.45,3.83-49,.11-3.07-1.33,2.68-3.18,4.49-3.57a11.93,11.93,0,0,1,3-.34C191.54,220.14,172.89,227.26,185.48,229.3Z" transform="translate(-179.42 -149.31)"/><path class="cls-1" d="M227.35,201.88a28,28,0,0,1,3.93-2.1s-6.49,1.16-13,1.71c-7.92.66-16.42.79-20.68.22-10.09-1.35,5.54-5.06,5.54-5.06a29.56,29.56,0,0,0-13.54,3.2C180.81,204.12,211.47,206.06,227.35,201.88Z" transform="translate(-179.42 -149.31)"/><path class="cls-1" d="M231.21,212.32a1.32,1.32,0,0,1-.32.42c21.55-5.66,13.63-20,3.32-16.34a2.92,2.92,0,0,0-1.37,1.06,12.4,12.4,0,0,1,1.84-.5C239.89,195.88,247.35,203.94,231.21,212.32Z" transform="translate(-179.42 -149.31)"/><path class="cls-1" d="M213,196.49c-3.18-7.18-14-13.47,0-24.5,17.41-13.74,8.48-22.68,8.48-22.68,3.6,14.2-12.71,18.49-18.6,27.33C198.88,182.66,204.86,189.14,213,196.49Z" transform="translate(-179.42 -149.31)"/><path class="cls-1" d="M231.8,232.14a127.47,127.47,0,0,1-39.2.61s2,1.63,12.16,2.29c15.49,1,39.27-.55,39.83-7.88C244.59,227.16,243.51,229.94,231.8,232.14Z" transform="translate(-179.42 -149.31)"/><path class="cls-1" d="M199.13,247.54a18.12,18.12,0,0,0-7.41,1.62l.63,2.49A16.86,16.86,0,0,1,198,250.5c2.85,0,4,1.15,4,3.52v2h-1.2c-6.92,0-10,2.59-10,6.62,0,3.48,2.05,5.41,5.93,5.41a8.77,8.77,0,0,0,6.09-2.35l.31,2.32H206V253.51C206,249.91,204.08,247.54,199.13,247.54ZM202,263a5.9,5.9,0,0,1-4.28,2c-2,0-3-1.37-3-3.26,0-2.06,1.21-3.75,5.8-3.75H202Z" transform="translate(-179.42 -149.31)"/><path class="cls-1" d="M217.61,263.68l-.83-3.61L213,248h-4.39l6.05,20h5a106,106,0,0,0,6.08-20h-4.27A77.16,77.16,0,0,1,217.61,263.68Z" transform="translate(-179.42 -149.31)"/><path class="cls-1" d="M236,247.54a18.37,18.37,0,0,0-7.46,1.62l.59,2.49a17.57,17.57,0,0,1,5.78-1.15c2.85,0,4.08,1.15,4.08,3.52v2h-1.43c-6.92,0-10,2.59-10,6.62,0,3.48,2.05,5.41,5.93,5.41a8.77,8.77,0,0,0,6.09-2.35l.32,2.32H243V253.51C243,249.91,241,247.54,236,247.54ZM234.6,265a2.94,2.94,0,0,1-3-3.26c0-2.06,1.15-3.74,5.73-3.74H239v5h-.07C237.47,264,236,265,234.6,265Z" transform="translate(-179.42 -149.31)"/><path class="cls-1" d="M184,263.37c0,3.27-.45,4.64-1,5.7a8.57,8.57,0,0,1-3.6,3.27l1.93,2.35a10.72,10.72,0,0,0,5.1-3.76c1.15-1.72,1.55-3.49,1.55-7.87V241h-4Z" transform="translate(-179.42 -149.31)"/></g></svg>