<svg id="java" xmlns="http://www.w3.org/2000/svg" viewBox="0 0 92.06 124.83"><defs><style>.cls-1{fill:#fff;}</style></defs><g id="plain"><path class="cls-1" d="M195.62,98.12c-19.2,5.36,11.67,16.44,36.11,6a45.79,45.79,0,0,1-6.87-3.35c-10.9,2.06-16,2.22-25.85,1.09C190.85,100.89,195.62,98.12,195.62,98.12Z" transform="translate(-165.97 -1.59)"/><path class="cls-1" d="M228.81,87.66c-14.45,2.78-22.79,2.69-33.36,1.6-8.17-.85-2.82-4.81-2.82-4.81-21.14,7,11.77,15,41.31,6.34A14.78,14.78,0,0,1,228.81,87.66Z" transform="translate(-165.97 -1.59)"/><path class="cls-1" d="M240.13,27.09S197.39,37.75,217.8,61.27c6,6.94-1.58,13.17-1.58,13.17s15.29-7.89,8.27-17.78C217.93,47.45,212.9,42.87,240.13,27.09Z" transform="translate(-165.97 -1.59)"/><path class="cls-1" d="M250.12,108.23s3.53,2.91-3.89,5.16c-14.1,4.27-58.7,5.56-71.09.17-4.45-1.94,3.9-4.63,6.53-5.19a16.82,16.82,0,0,1,4.3-.49c-4.95-3.48-32,6.85-13.74,9.82C222.05,125.77,263,114.06,250.12,108.23Z" transform="translate(-165.97 -1.59)"/><path class="cls-1" d="M233,77.9a39.48,39.48,0,0,1,5.7-3.06s-9.42,1.69-18.81,2.48c-11.49,1-23.82,1.15-30,.32-14.65-2,8-7.35,8-7.35s-8.81-.59-19.64,4.65C165.45,81.13,210,84,233,77.9Z" transform="translate(-165.97 -1.59)"/><path class="cls-1" d="M238.61,93a2.13,2.13,0,0,1-.47.62c31.27-8.22,19.78-29,4.82-23.73a4.3,4.3,0,0,0-2,1.55,16.85,16.85,0,0,1,2.68-.72C251.2,69.18,262,80.87,238.61,93Z" transform="translate(-165.97 -1.59)"/><path class="cls-1" d="M212.18,70.07c-4.61-10.43-20.26-19.55,0-35.56,25.27-19.95,12.3-32.92,12.3-32.92,5.23,20.61-18.45,26.83-27,39.66C191.67,50,200.35,59.4,212.18,70.07Z" transform="translate(-165.97 -1.59)"/><path class="cls-1" d="M239.45,121.82c-19.18,3.61-42.85,3.19-56.88.87,0,0,2.87,2.38,17.64,3.33,22.48,1.44,57-.8,57.82-11.43C258,114.59,256.46,118.62,239.45,121.82Z" transform="translate(-165.97 -1.59)"/></g></svg>