<?xml version="1.0" encoding="utf-8"?>
<!-- Generator: Adobe Illustrator 25.0.0, SVG Export Plug-In . SVG Version: 6.00 Build 0)  -->
<svg version="1.1" id="Layer_1" xmlns="http://www.w3.org/2000/svg" xmlns:xlink="http://www.w3.org/1999/xlink" x="0px" y="0px"
	 viewBox="0 0 128 128" style="enable-background:new 0 0 128 128;" xml:space="preserve">
<style type="text/css">
	.st0{fill:#FE6601;}
</style>
<g>
	<path class="st0" d="M45.09,81.66c-1.03-1.81-2.72-3.01-4.12-4.48c-2.2-2.32-4.5-4.54-6.76-6.8c-2.31-2.31-4.61-4.62-6.94-6.91
		c-2.21-2.19-4.46-4.34-6.66-6.54c-0.47-0.47-0.74-1.07-0.72-1.85c0.06-3.9,0.05-7.81,0.01-11.71c-0.01-0.91,0.17-1.3,1.2-1.29
		c4.05,0.06,8.11,0.06,12.16,0c1.05-0.02,1.22,0.39,1.19,1.29c-0.06,1.58,0.08,3.17-0.04,4.74c-0.11,1.45,0.36,2.49,1.41,3.49
		c2.93,2.8,5.77,5.69,8.61,8.59c0.6,0.62,0.9,0.57,1.49-0.02c4.62-4.68,9.26-9.33,13.94-13.94c0.66-0.65,0.68-1.07,0.06-1.68
		c-3.05-3.01-6.09-6.02-9.11-9.07c-0.54-0.55-1.12-0.67-1.84-0.67c-9.05,0.02-18.09-0.01-27.14,0.04c-1.22,0.01-2.09-0.31-2.97-1.2
		c-4.43-4.51-8.93-8.96-13.43-13.44c0.43-0.45,0.95-0.22,1.4-0.22c15.97-0.01,31.93-0.01,47.9-0.02c0.75,0,1.38,0.06,1.99,0.67
		c7.83,7.89,15.69,15.76,23.58,23.6c0.85,0.85,1.18,1.37,0.04,2.28c-1.22,0.97-2.22,2.19-3.35,3.27c-0.48,0.46-0.74,0.74-0.08,1.37
		c2.78,2.67,5.47,5.43,8.22,8.12c0.71,0.69,1.09,1.39,1.08,2.44c-0.05,6.32-0.03,12.65-0.03,19.16c-1.18-0.73-1.94-1.69-2.78-2.52
		c-5.46-5.44-10.93-10.88-16.32-16.39c-0.95-0.97-1.51-0.91-2.34,0.05c-0.97,1.11-2.01,2.17-3.12,3.14
		c-0.76,0.66-0.67,1.03,0.01,1.7c6.14,6.09,12.25,12.21,18.35,18.33c0.33,0.33,0.78,0.6,0.9,1.13c-0.33,0.35-0.75,0.18-1.11,0.18
		c-5.98,0.01-11.96-0.01-17.94,0.03c-0.93,0.01-1.55-0.29-2.19-0.94c-2.77-2.82-5.6-5.58-8.36-8.41c-0.6-0.61-0.98-0.81-1.59-0.08
		c-1.35,1.61-3.13,2.83-4.32,4.6C45.27,81.67,45.18,81.66,45.09,81.66z"/>
	<path class="st0" d="M45.09,81.66c0.09,0.01,0.18,0.01,0.27,0.02c2.36,1.95,4.36,4.28,6.56,6.4c1.53,1.47,3.04,2.97,4.49,4.53
		c0.66,0.71,1.34,0.98,2.32,0.98c16.02-0.03,32.03-0.02,48.05-0.02c0.67,0,1.33-0.1,1.91,0.5c4.56,4.63,9.15,9.24,13.9,14.01
		c-0.67,0-1.19,0-1.71,0c-22.74,0-45.48,0-68.22,0.01c-1.04,0-1.72-0.27-2.51-1.09c-3.47-3.61-7.09-7.06-10.65-10.58
		c-1.35-1.34-2.69-2.69-4.03-4.04c-0.31-0.31-0.69-0.6-0.19-1.09C38.56,88.08,41.82,84.87,45.09,81.66z"/>
	<path class="st0" d="M108.28,68.85c0,5.39-0.03,10.78,0.02,16.17c0.01,1.08-0.23,1.45-1.38,1.43c-3.95-0.07-7.91-0.06-11.87,0
		c-1.04,0.02-1.32-0.29-1.32-1.32c0.04-8.7,0.01-17.4,0.04-26.11c0-0.89-0.22-1.53-0.89-2.18c-3.53-3.44-6.97-6.98-10.5-10.42
		c-0.85-0.83-0.8-1.32,0.03-2.12c2.91-2.82,5.78-5.69,8.61-8.59c0.62-0.63,0.94-0.56,1.52,0.02c4.94,4.99,9.9,9.95,14.89,14.89
		c0.66,0.65,0.87,1.32,0.86,2.22C108.27,58.17,108.28,63.51,108.28,68.85z"/>
</g>
</svg>
