<svg id="Express" xmlns="http://www.w3.org/2000/svg" viewBox="0 0 125.35 72.8"><defs><style>.cls-1{fill:#fff;}</style></defs><g id="original"><path class="cls-1" d="M275.67,98.44c-4.55,1.17-7.37,0-9.91-3.74-5.68-8.51-11.94-16.63-18-24.9-.78-1.07-1.59-2.12-2.59-3.46C238,76,230.85,85.2,224.14,94.77c-2.4,3.42-4.92,4.9-9.4,3.7l26.92-36.13L216.6,29.71c4.31-.85,7.29-.41,9.94,3.45,5.83,8.52,12.26,16.63,18.67,25.21C251.65,49.82,258,41.7,264,33.26c2.4-3.42,5-4.72,9.32-3.46-3.28,4.35-6.48,8.62-9.71,12.87-4.36,5.74-8.64,11.53-13.16,17.14-1.61,2-1.35,3.3.09,5.19C258.9,76,267.16,87.1,275.67,98.44Z" transform="translate(-150.33 -27.6)"/><path class="cls-1" d="M150.33,61.74c.72-3.61,1.2-7.29,2.19-10.83,6-21.43,30.61-30.34,47.5-17.06,9.91,7.79,12.37,18.77,11.88,31.18H156.1c-.84,22.21,15.15,35.62,35.53,28.78,7.16-2.4,11.36-8,13.47-15,1.07-3.51,2.84-4.06,6.15-3.06-1.69,8.76-5.53,16.08-13.52,20.66-12,6.86-29.13,4.64-38.14-4.88C154.26,85.89,152,78.92,151,71.39c-.16-1.2-.47-2.38-.7-3.57Zm5.87-1.49h50.43c-.33-16.06-10.32-27.47-24-27.57C167.63,32.56,156.85,43.7,156.2,60.25Z" transform="translate(-150.33 -27.6)"/></g></svg>