<svg id="Express" xmlns="http://www.w3.org/2000/svg" viewBox="0 0 123.75 27.64"><defs><style>.cls-1{fill:#fff;}</style></defs><g id="original-wordmark"><path class="cls-1" d="M40.53,77.82V50.74H42V55a7.25,7.25,0,0,0,.48-.6,7.27,7.27,0,0,1,6.63-4.12c3.35-.1,6.07,1.15,7.68,4.12a13.24,13.24,0,0,1,.31,12.14c-1.49,3.35-5.17,5-9.11,4.39a7.37,7.37,0,0,1-5.88-3.88V77.82ZM42,60.32c.13,1.32.18,2.25.33,3.17.57,3.62,2.72,5.78,6.07,6.16A6.9,6.9,0,0,0,56,65.27a11.76,11.76,0,0,0-.27-9.68,6.77,6.77,0,0,0-7.12-4,6.6,6.6,0,0,0-5.89,4.87A33.6,33.6,0,0,0,42,60.32Z" transform="translate(-2.13 -50.18)"/><path class="cls-1" d="M88.41,64a7.92,7.92,0,0,1-7.74,7c-6.16.32-9.06-3.77-9.51-8.49A13.57,13.57,0,0,1,72.36,55a8.36,8.36,0,0,1,8.7-4.67,8,8,0,0,1,7.1,6.09,38.51,38.51,0,0,1,.69,4.49H72.67c-.3,4.28,2,7.72,5.26,8.55,4.06,1,7.53-.76,8.79-4.62C87,63.86,87.51,63.72,88.41,64ZM72.67,59.55H87.14c-.08-4.56-2.93-7.86-6.77-7.91C76,51.57,72.86,54.75,72.67,59.55Z" transform="translate(-2.13 -50.18)"/><path class="cls-1" d="M91.39,64.1h1.43A5.67,5.67,0,0,0,96.15,69a8.72,8.72,0,0,0,7.59-.2,3.42,3.42,0,0,0,2-3.35,3.1,3.1,0,0,0-2.08-3.09c-1.56-.58-3.22-.9-4.81-1.4A35.33,35.33,0,0,1,94,59.18c-2.56-1.25-2.72-6.12.18-7.66a10.21,10.21,0,0,1,9.76-.15,5.13,5.13,0,0,1,2.59,5.24h-1.21c0-.06-.11-.11-.11-.17-.15-3.89-3.41-5.09-6.91-4.74a9.25,9.25,0,0,0-3,.91,3,3,0,0,0-1.73,3,3,3,0,0,0,2,2.82c1.53.56,3.14.92,4.73,1.36,1.27.35,2.59.58,3.82,1a4.53,4.53,0,0,1,3.1,4.07,4.81,4.81,0,0,1-2.6,5c-3.34,1.88-8.83,1.39-11.29-1A6.66,6.66,0,0,1,91.39,64.1Z" transform="translate(-2.13 -50.18)"/><path class="cls-1" d="M125.21,56.61h-1.33c0-.18-.07-.33-.09-.49a4.34,4.34,0,0,0-3.54-4.18,8.67,8.67,0,0,0-5.6.27,3.4,3.4,0,0,0-2.48,3.25,3.14,3.14,0,0,0,2.41,3.16c2,.62,4,1,6.08,1.56a18.84,18.84,0,0,1,1.94.59,5,5,0,0,1,.27,9.31,11.1,11.1,0,0,1-9,.09,6.23,6.23,0,0,1-3.76-6.06c.18,0,.37,0,.56,0h.74a7.29,7.29,0,0,0,11.1,4.65,3.61,3.61,0,0,0,1.92-3.35,3.09,3.09,0,0,0-2.11-3.06c-1.56-.58-3.22-.89-4.81-1.4a34.55,34.55,0,0,1-4.88-1.75c-2.5-1.22-2.7-6.06.16-7.6a10,10,0,0,1,9.91-.11A5.21,5.21,0,0,1,125.21,56.61Z" transform="translate(-2.13 -50.18)"/><path class="cls-1" d="M38.1,70.51a2.29,2.29,0,0,1-2.84-1.07c-1.63-2.45-3.43-4.78-5.16-7.15l-.75-1c-2.06,2.76-4.11,5.41-6,8.16a2.21,2.21,0,0,1-2.7,1.06l7.73-10.37-7.19-9.37a2.4,2.4,0,0,1,2.85,1c1.67,2.45,3.52,4.78,5.36,7.24,1.84-2.45,3.68-4.79,5.38-7.21a2.15,2.15,0,0,1,2.68-1l-2.79,3.7c-1.25,1.64-2.48,3.3-3.77,4.91a1,1,0,0,0,0,1.49C33.29,64.07,35.66,67.25,38.1,70.51Z" transform="translate(-2.13 -50.18)"/><path class="cls-1" d="M70.92,50.66v1.4a7.23,7.23,0,0,0-7.72,7.49v11H61.77V50.74h1.4V54.8C64.9,51.84,67.57,50.74,70.92,50.66Z" transform="translate(-2.13 -50.18)"/><path class="cls-1" d="M2.13,60c.2-1,.34-2.1.63-3.11,1.73-6.15,8.78-8.71,13.63-4.9,2.84,2.24,3.55,5.39,3.41,9h-16C3.54,67.3,8.13,71.14,14,69.18a6.11,6.11,0,0,0,3.87-4.3c.3-1,.81-1.17,1.76-.88a8.13,8.13,0,0,1-3.88,5.93,9.41,9.41,0,0,1-10.95-1.4,9.84,9.84,0,0,1-2.45-5.78c-.05-.35-.14-.69-.2-1Zm1.68-.43H18.29c-.1-4.61-3-7.88-6.88-7.91C7.09,51.6,4,54.8,3.81,59.55Z" transform="translate(-2.13 -50.18)"/></g></svg>